<svg xmlns="http://www.w3.org/2000/svg" width="20.76" height="20.76" viewBox="0 0 20.76 20.76">
  <g id="_7days" data-name="7days" transform="translate(0.25 0.25)">
    <path id="Path_1164" data-name="Path 1164" d="M20.26,18.108V3.862a2.155,2.155,0,0,0-2.153-2.153H15.955V.412A.427.427,0,0,0,15.512,0,.419.419,0,0,0,15.1.412v1.3H5.16V.412a.412.412,0,1,0-.823,0v1.3H2.153A2.175,2.175,0,0,0,0,3.862V18.108A2.135,2.135,0,0,0,2.153,20.26H18.108A2.135,2.135,0,0,0,20.26,18.108ZM.855,3.862a1.284,1.284,0,0,1,1.3-1.3H4.305V4.305a.412.412,0,0,0,.823,0V2.564h9.94V4.305a.412.412,0,1,0,.823,0V2.564h2.153a1.284,1.284,0,0,1,1.3,1.3V6.9H.855Zm1.3,15.543a1.284,1.284,0,0,1-1.3-1.3V7.756H19.406V18.108a1.284,1.284,0,0,1-1.3,1.3Z" fill="#a8aefa" stroke="#a8aefa" stroke-width="0.5"/>
    <path id="Path_1165" data-name="Path 1165" d="M28.143,36.264h.791L30.771,31.8H27.7v.6h2.058Z" transform="translate(-18.931 -20.733)" fill="#a8aefa" stroke="#a8aefa" stroke-width="0.5"/>
  </g>
</svg>
