<svg id="copy" xmlns="http://www.w3.org/2000/svg" width="16.473" height="17.97" viewBox="0 0 16.473 17.97">
  <path id="Path_1149" data-name="Path 1149" d="M6.926,110.037a3.186,3.186,0,0,1,3.182,3.182v7.675h1.31a2.061,2.061,0,0,0,2.059-2.059V108.727a2.061,2.061,0,0,0-2.059-2.059H2.059A2.061,2.061,0,0,0,0,108.727v1.31Zm0,0" transform="translate(2.995 -106.668)" fill="#fff"/>
  <path id="Path_1150" data-name="Path 1150" d="M128,11.419a2.059,2.059,0,0,0,2.059,2.059h7.862a2.059,2.059,0,0,0,2.059-2.059V2.059A2.059,2.059,0,0,0,137.921,0h-7.862A2.059,2.059,0,0,0,128,2.059Zm0,0" transform="translate(-128 4.493)" fill="#fff"/>
</svg>
