<svg xmlns="http://www.w3.org/2000/svg" width="21.098" height="21.099" viewBox="0 0 21.098 21.099"><path d="M14.505,0H6.593A6.613,6.613,0,0,0,0,6.593v7.912A6.613,6.613,0,0,0,6.593,21.1h7.912A6.613,6.613,0,0,0,21.1,14.505V6.593A6.613,6.613,0,0,0,14.505,0ZM19.12,14.505a4.629,4.629,0,0,1-4.615,4.615H6.593a4.629,4.629,0,0,1-4.615-4.615V6.593A4.629,4.629,0,0,1,6.593,1.978h7.912A4.629,4.629,0,0,1,19.12,6.593Z" fill="#9b66ff"/><g transform="translate(5.29 5.29)"><path d="M15.875,10.6a5.275,5.275,0,1,0,5.275,5.275h0A5.269,5.269,0,0,0,15.875,10.6Zm0,8.571a3.3,3.3,0,1,1,3.3-3.3h0A3.35,3.35,0,0,1,15.875,19.171Z" transform="translate(-10.6 -10.6)" fill="#9b66ff"/></g><g transform="translate(15.534 4.191)"><circle cx="0.692" cy="0.692" r="0.692" fill="#9b66ff"/></g></svg>