<svg xmlns="http://www.w3.org/2000/svg" width="107.6" height="15" viewBox="0 0 107.6 15"><g transform="translate(-952.8 -70.3)"><path d="M958.4,82.5l2.7-7.4h2.8L960,85h-3.3l-3.9-10h2.8Z" fill="#fff"/><path d="M965.5,70.7h2.9v2.8h-2.9Zm2.8,4.3V85h-2.7V75Z" fill="#fff"/><path d="M975,74.8a3.533,3.533,0,0,1,3.1,1.7V70.3h2.7V85h-2.6V83.6a3.756,3.756,0,0,1-3.2,1.6,4.758,4.758,0,0,1-4.8-5.1C970.3,76.9,972.3,74.8,975,74.8Zm.6,2.3A2.61,2.61,0,0,0,973,80a2.615,2.615,0,1,0,5.2,0A2.724,2.724,0,0,0,975.6,77.1Z" fill="#fff"/><path d="M992.7,82.1a4.612,4.612,0,0,1-4.6,3.1,5.014,5.014,0,0,1-5.3-5.2,4.914,4.914,0,0,1,5-5.1,4.228,4.228,0,0,1,4.6,4.5,4.87,4.87,0,0,1-.1,1.2h-6.8a2.419,2.419,0,0,0,2.6,2.4,2.186,2.186,0,0,0,2.3-1.7Zm-2.9-3.4h0c0-1.1-.8-1.7-2-1.7a2.37,2.37,0,0,0-2.3,1.7Z" fill="#fff"/><path d="M999.2,74.8A5.2,5.2,0,1,1,994,80,5.044,5.044,0,0,1,999.2,74.8Zm0,2.5a2.808,2.808,0,1,0,2.6,2.8A2.577,2.577,0,0,0,999.2,77.3Z" fill="#fff"/><path d="M1013.9,80.4l2.5.9a4.884,4.884,0,0,1-5.1,4c-3.3,0-5.4-2.1-5.4-5.2A5.056,5.056,0,0,1,1011,75c2.5,0,4.4,1.3,4.8,3.6l-2.4.8a2.23,2.23,0,0,0-2.4-2,2.632,2.632,0,0,0-2.6,2.8,2.739,2.739,0,0,0,2.7,2.9A3.087,3.087,0,0,0,1013.9,80.4Z" fill="#fff"/><path d="M1021.7,78.9a8.807,8.807,0,0,1,1.7.2l.9.2v-.6a1.791,1.791,0,0,0-2-1.8,2.171,2.171,0,0,0-2.2,1.7l-2.3-.6c.5-1.9,2.1-3.1,4.5-3.1,3,0,4.6,1.4,4.6,4V85h-2.5V83.5a3.377,3.377,0,0,1-3.3,1.7,3.159,3.159,0,0,1-3.3-3.1C1017.8,80,1019.3,78.9,1021.7,78.9Zm2.6,2.3-.6-.2a5.5,5.5,0,0,0-1.6-.3c-1,0-1.6.4-1.6,1.2,0,.7.5,1.2,1.6,1.2a1.833,1.833,0,0,0,2.2-1.9Z" fill="#fff"/><path d="M1032.1,75v1.2a2.635,2.635,0,0,1,2.5-1.4,2.556,2.556,0,0,1,2.6,1.9,3,3,0,0,1,2.9-1.9,3.125,3.125,0,0,1,3.3,3.4V85h-2.7V78.8c0-1.1-.6-1.7-1.5-1.7s-1.5.7-1.5,1.8V85H1035V78.8c0-1.1-.6-1.7-1.5-1.7s-1.5.7-1.5,1.9v6h-2.7V75Z" fill="#fff"/><path d="M1054.4,77.6V73.8h2.2v3.8h3.8v2.2h-3.8v3.8h-2.2V79.8h-3.8V77.6Z" fill="#fff"/></g></svg>