<svg xmlns="http://www.w3.org/2000/svg" width="18.803" height="20.513" viewBox="0 0 18.803 20.513">
  <g id="share" transform="translate(0 0)">
    <path id="Path_1153" data-name="Path 1153" d="M320.223,18.778A2.778,2.778,0,1,1,317.446,16a2.778,2.778,0,0,1,2.778,2.778Zm0,0" transform="translate(-302.061 -15.359)" fill="#fff"/>
    <path id="Path_1154" data-name="Path 1154" d="M302.087,6.838a3.419,3.419,0,1,1,3.419-3.419A3.422,3.422,0,0,1,302.087,6.838Zm0-5.556a2.137,2.137,0,1,0,2.137,2.137,2.139,2.139,0,0,0-2.137-2.137Zm0,0" transform="translate(-286.702)" fill="#fff"/>
    <path id="Path_1155" data-name="Path 1155" d="M320.223,360.11a2.778,2.778,0,1,1-2.778-2.778A2.778,2.778,0,0,1,320.223,360.11Zm0,0" transform="translate(-302.061 -343.016)" fill="#fff"/>
    <path id="Path_1156" data-name="Path 1156" d="M302.087,348.17a3.419,3.419,0,1,1,3.419-3.419A3.422,3.422,0,0,1,302.087,348.17Zm0-5.556a2.137,2.137,0,1,0,2.137,2.137A2.139,2.139,0,0,0,302.087,342.614Zm0,0" transform="translate(-286.702 -327.657)" fill="#fff"/>
    <path id="Path_1157" data-name="Path 1157" d="M21.556,189.446a2.778,2.778,0,1,1-2.778-2.778A2.778,2.778,0,0,1,21.556,189.446Zm0,0" transform="translate(-15.359 -179.189)" fill="#fff"/>
    <path id="Path_1158" data-name="Path 1158" d="M3.419,177.505a3.419,3.419,0,1,1,3.419-3.419,3.422,3.422,0,0,1-3.419,3.419Zm0-5.555a2.137,2.137,0,1,0,2.137,2.137,2.139,2.139,0,0,0-2.137-2.137Zm0,0" transform="translate(0 -163.83)" fill="#fff"/>
    <path id="Path_1159" data-name="Path 1159" d="M115.2,96.446a.855.855,0,0,1-.424-1.6l7.931-4.521a.855.855,0,1,1,.846,1.486l-7.931,4.521a.849.849,0,0,1-.422.112Zm0,0" transform="translate(-109.767 -86.6)" fill="#fff"/>
    <path id="Path_1160" data-name="Path 1160" d="M123.156,272.45a.849.849,0,0,1-.422-.112l-7.931-4.521a.855.855,0,0,1,.846-1.486l7.931,4.521a.855.855,0,0,1-.424,1.6Zm0,0" transform="translate(-109.789 -255.553)" fill="#fff"/>
  </g>
</svg>
