<svg xmlns="http://www.w3.org/2000/svg" width="15.837" height="18.464" viewBox="0 0 15.837 18.464">
  <path id="Union_9" data-name="Union 9" d="M12514.639,7774.707a5.88,5.88,0,0,1-1.637-4.084,5.745,5.745,0,0,1,6.54-5.787v3.23a2.67,2.67,0,0,0-2.892,4.166,2.679,2.679,0,0,1-1.448-2.389,2.677,2.677,0,0,0,1.446,2.389,2.615,2.615,0,0,0,2.094,1.054,2.651,2.651,0,0,0,2.632-2.663V7758h2.266a4.433,4.433,0,0,0,1.986,2.985,4.293,4.293,0,0,0,3.213,1.438v3.161a7.348,7.348,0,0,1-4.336-1.411v6.45a5.8,5.8,0,0,1-5.75,5.841A5.691,5.691,0,0,1,12514.639,7774.707Zm8.953-4.854a5.8,5.8,0,0,1-5.6,5.839,5.8,5.8,0,0,0,5.6-5.839v-6.448l0,0Zm.05-11.854h.861v.406a4.448,4.448,0,0,0,1.123,2.58A4.424,4.424,0,0,1,12523.642,7758Z" transform="translate(-12513.002 -7758)" fill="#6075ff"/>
</svg>
