<svg xmlns="http://www.w3.org/2000/svg" width="25.846" height="21" viewBox="0 0 25.846 21"><path d="M23.181,11.25v.687A14.926,14.926,0,0,1,8.4,27H8.117A15.232,15.232,0,0,1,0,24.617c.444.04.848.081,1.292.081a10.825,10.825,0,0,0,6.583-2.262,5.287,5.287,0,0,1-4.967-3.675,8.5,8.5,0,0,0,1.01.081,7.966,7.966,0,0,0,1.413-.162,5.286,5.286,0,0,1-4.24-5.21V13.39a5.426,5.426,0,0,0,2.383.687A5.305,5.305,0,0,1,1.09,9.635a5.188,5.188,0,0,1,.727-2.665,14.95,14.95,0,0,0,10.9,5.533A6.164,6.164,0,0,1,12.6,11.29,5.283,5.283,0,0,1,17.89,6h0a5.41,5.41,0,0,1,3.877,1.656,11.312,11.312,0,0,0,3.352-1.292,5.219,5.219,0,0,1-2.342,2.908,11.478,11.478,0,0,0,3.069-.808,10.936,10.936,0,0,1-2.665,2.787Z" transform="translate(0 -6)" fill="#9b66ff"/></svg>