<svg xmlns="http://www.w3.org/2000/svg" width="15.736" height="14" viewBox="0 0 15.736 14">
  <path id="heart_1_" data-name="heart (1)" d="M14.488,1.37A4.231,4.231,0,0,0,11.341,0,3.959,3.959,0,0,0,8.868.853a5.059,5.059,0,0,0-1,1.044,5.056,5.056,0,0,0-1-1.044A3.958,3.958,0,0,0,4.4,0,4.232,4.232,0,0,0,1.249,1.37,4.919,4.919,0,0,0,0,4.729,5.857,5.857,0,0,0,1.561,8.563,33.281,33.281,0,0,0,5.468,12.23c.541.461,1.155.984,1.792,1.541a.924.924,0,0,0,1.216,0c.637-.557,1.251-1.08,1.793-1.542a33.262,33.262,0,0,0,3.907-3.667,5.856,5.856,0,0,0,1.561-3.834A4.918,4.918,0,0,0,14.488,1.37Zm0,0" transform="translate(0)" fill="#fff"/>
</svg>
