<svg xmlns="http://www.w3.org/2000/svg" width="27.686" height="24.632" viewBox="0 0 27.686 24.632">
  <path id="heart_1_" data-name="heart (1)" d="M25.49,2.411A7.445,7.445,0,0,0,19.953,0,6.965,6.965,0,0,0,15.6,1.5a8.9,8.9,0,0,0-1.759,1.836A8.9,8.9,0,0,0,12.085,1.5,6.964,6.964,0,0,0,7.735,0,7.445,7.445,0,0,0,2.2,2.411,8.654,8.654,0,0,0,0,8.321a10.3,10.3,0,0,0,2.746,6.745A58.555,58.555,0,0,0,9.62,21.518c.952.812,2.032,1.732,3.153,2.712a1.625,1.625,0,0,0,2.14,0c1.121-.98,2.2-1.9,3.154-2.713a58.522,58.522,0,0,0,6.873-6.451A10.3,10.3,0,0,0,27.687,8.32a8.653,8.653,0,0,0-2.2-5.91Zm0,0" transform="translate(0)" fill="#fff"/>
</svg>
