<svg xmlns="http://www.w3.org/2000/svg" width="22.452" height="18.242" viewBox="0 0 22.452 18.242">
  <path id="twitter" d="M20.137,10.561v.6A12.966,12.966,0,0,1,7.3,24.242H7.051A13.232,13.232,0,0,1,0,22.172c.386.035.737.07,1.123.07a9.4,9.4,0,0,0,5.718-1.965,4.593,4.593,0,0,1-4.315-3.192,7.385,7.385,0,0,0,.877.07,6.92,6.92,0,0,0,1.228-.14A4.592,4.592,0,0,1,.947,12.49v-.07a4.713,4.713,0,0,0,2.07.6A4.609,4.609,0,0,1,.947,9.157a4.507,4.507,0,0,1,.631-2.315,12.987,12.987,0,0,0,9.472,4.806,5.354,5.354,0,0,1-.105-1.052,4.589,4.589,0,0,1,4.6-4.6h0a4.7,4.7,0,0,1,3.368,1.438A9.826,9.826,0,0,0,21.82,6.316a4.534,4.534,0,0,1-2.035,2.526,9.97,9.97,0,0,0,2.666-.7,9.5,9.5,0,0,1-2.315,2.421Z" transform="translate(0 -6)" fill="#fff"/>
</svg>
